<svg height="20px" width="20px" version="1.1" id="Capa_1" xmlns="http://www.w3.org/2000/svg" xmlns:xlink="http://www.w3.org/1999/xlink" viewBox="0 0 44 44" xml:space="preserve" fill="#000000"><g id="SVGRepo_bgCarrier" stroke-width="0"></g><g id="SVGRepo_tracerCarrier" stroke-linecap="round" stroke-linejoin="round"></g><g id="SVGRepo_iconCarrier"> <g> <path style="fill:#F0C419;" d="M22,44C9.869,44,0,34.131,0,22S9.869,0,22,0s22,9.869,22,22S34.131,44,22,44z"></path> <path style="fill:#FBD490;" d="M22.745,32h-1.491C20.009,32,19,30.991,19,29.745V13.255C19,12.009,20.009,11,21.255,11h1.491 C23.991,11,25,12.009,25,13.255v16.491C25,30.991,23.991,32,22.745,32z"></path> <path style="fill:#F0C419;" d="M22,44C9.869,44,0,34.131,0,22S9.869,0,22,0s22,9.869,22,22S34.131,44,22,44z"></path> <path style="fill:#FBD490;" d="M22.745,32h-1.491C20.009,32,19,30.991,19,29.745V13.255C19,12.009,20.009,11,21.255,11h1.491 C23.991,11,25,12.009,25,13.255v16.491C25,30.991,23.991,32,22.745,32z"></path> </g> </g></svg>